# xmcd
#
# Track frame offsets:
#	150
#	20973
#	45625
#	68157
#	91628
#	111885
#	131180
#	157444
#	177008
#	196449
#
# Disc length: 2863 seconds
#
# Revision: 1
# Processed by: cddbd v1.5.2PL0 Copyright (c) Steve Scherf et al.
# Submitted via: EasyCDDAExtractor 12.1.0.1
#
DISCID=8e0b2d0a
DTITLE=Various Artist - Les Mills Body Pump #74
DYEAR=2010
DGENRE=Other
TTITLE0=Jamie Knight - Run (Almighty Anthem Radio Edit)
TTITLE1=Annie Lee - This Is Who I Am
TTITLE2=OneZeroOne feat. Ant P - We Weren't Born to Follow
TTITLE3=Alex Cortez - Don't Speak
TTITLE4=Britney Spears - 3
TTITLE5=Beat Factory - Boom Boom Pow
TTITLE6=Rhythm Twins - Dangerous
TTITLE7=Badlands Inc - She's a Genious
TTITLE8=Jason Derulo - In My Head
TTITLE9=Guy Sebastian - Art of Love (feat. Jordin Sparks)
EXTD=
EXTT0=
EXTT1=
EXTT2=
EXTT3=
EXTT4=
EXTT5=
EXTT6=
EXTT7=
EXTT8=
EXTT9=
PLAYORDER=
